<?xml version="1.0" standalone="no"?>
<!DOCTYPE svg PUBLIC "-//W3C//DTD SVG 20010904//EN"
 "http://www.w3.org/TR/2001/REC-SVG-20010904/DTD/svg10.dtd">
<svg version="1.0" xmlns="http://www.w3.org/2000/svg"
 width="16.000000pt" height="16.000000pt" viewBox="0 0 16.000000 16.000000"
 preserveAspectRatio="xMidYMid meet">
<metadata>
Created by potrace 1.11, written by Peter Selinger 2001-2013
</metadata>
<g transform="translate(0.000000,16.000000) scale(0.002716,-0.002716)"
fill="#000000" stroke="none">
<path d="M2745 5884 c-190 -19 -259 -29 -385 -54 -1157 -231 -2069 -1143
-2300 -2300 -44 -222 -55 -334 -55 -580 1 -247 11 -361 55 -580 200 -1003 919
-1836 1885 -2185 1139 -411 2418 -77 3213 840 960 1105 960 2745 0 3850 -474
547 -1120 893 -1844 990 -113 15 -484 28 -569 19z m600 -168 c428 -70 817
-221 1150 -446 311 -210 626 -537 819 -850 370 -598 500 -1316 366 -2013 -34
-176 -148 -535 -181 -571 -11 -12 -175 16 -344 59 -440 113 -801 316 -1053
591 -201 220 -361 527 -417 799 -89 438 93 812 483 992 212 98 492 119 709 52
36 -11 67 -19 69 -16 8 8 -159 198 -238 269 -362 327 -744 468 -1267 468 -322
0 -600 -66 -908 -215 -141 -68 -318 -168 -420 -237 -23 -15 -46 -28 -51 -28
-5 0 -40 25 -78 56 -124 102 -446 340 -594 438 -79 53 -146 98 -147 100 -5 5
178 131 275 189 313 188 705 323 1057 366 50 6 101 13 115 15 66 11 560 -3
655 -18z m-2245 -1046 c11 -118 36 -318 55 -445 19 -126 35 -235 35 -242 0
-28 -466 -285 -666 -367 -106 -43 -271 -96 -300 -96 -21 0 -18 23 20 162 128
464 364 874 705 1221 l116 118 7 -68 c4 -37 16 -165 28 -283z m265 236 c638
-430 1323 -1064 1766 -1636 234 -303 495 -728 664 -1084 130 -272 226 -546
289 -817 57 -249 126 -694 109 -709 -8 -7 -629 -367 -669 -388 -20 -10 -36 -1
-145 82 -498 378 -804 707 -1122 1205 -150 236 -323 557 -429 796 -299 672
-512 1537 -593 2404 -19 205 -19 245 -2 235 6 -4 66 -44 132 -88z"/>
<path d="M1470 4572 c-12 -10 -22 -29 -22 -43 0 -27 2142 -3723 2174 -3751 27
-24 44 -23 74 7 18 18 23 31 19 47 -13 38 -2157 3722 -2177 3741 -26 22 -40
22 -68 -1z"/>
</g>
</svg>
